<?xml version="1.0" encoding="utf-8"?>
<svg xmlns="http://www.w3.org/2000/svg" xmlns:xlink="http://www.w3.org/1999/xlink" style="margin: auto; background: rgb(255, 255, 255); display: block; shape-rendering: auto;" width="209px" height="209px" viewBox="0 0 100 100" preserveAspectRatio="xMidYMid">
<g transform="rotate(0 50 50)">
  <rect x="48" y="35" rx="2" ry="7.84" width="4" height="16" fill="#0e162e">
    <animate attributeName="opacity" values="1;0" keyTimes="0;1" dur="0.5154639175257733s" begin="-0.4725085910652921s" repeatCount="indefinite"></animate>
  </rect>
</g><g transform="rotate(30 50 50)">
  <rect x="48" y="35" rx="2" ry="7.84" width="4" height="16" fill="#0e162e">
    <animate attributeName="opacity" values="1;0" keyTimes="0;1" dur="0.5154639175257733s" begin="-0.42955326460481097s" repeatCount="indefinite"></animate>
  </rect>
</g><g transform="rotate(60 50 50)">
  <rect x="48" y="35" rx="2" ry="7.84" width="4" height="16" fill="#0e162e">
    <animate attributeName="opacity" values="1;0" keyTimes="0;1" dur="0.5154639175257733s" begin="-0.38659793814432986s" repeatCount="indefinite"></animate>
  </rect>
</g><g transform="rotate(90 50 50)">
  <rect x="48" y="35" rx="2" ry="7.84" width="4" height="16" fill="#0e162e">
    <animate attributeName="opacity" values="1;0" keyTimes="0;1" dur="0.5154639175257733s" begin="-0.3436426116838488s" repeatCount="indefinite"></animate>
  </rect>
</g><g transform="rotate(120 50 50)">
  <rect x="48" y="35" rx="2" ry="7.84" width="4" height="16" fill="#0e162e">
    <animate attributeName="opacity" values="1;0" keyTimes="0;1" dur="0.5154639175257733s" begin="-0.3006872852233677s" repeatCount="indefinite"></animate>
  </rect>
</g><g transform="rotate(150 50 50)">
  <rect x="48" y="35" rx="2" ry="7.84" width="4" height="16" fill="#0e162e">
    <animate attributeName="opacity" values="1;0" keyTimes="0;1" dur="0.5154639175257733s" begin="-0.25773195876288657s" repeatCount="indefinite"></animate>
  </rect>
</g><g transform="rotate(180 50 50)">
  <rect x="48" y="35" rx="2" ry="7.84" width="4" height="16" fill="#0e162e">
    <animate attributeName="opacity" values="1;0" keyTimes="0;1" dur="0.5154639175257733s" begin="-0.21477663230240548s" repeatCount="indefinite"></animate>
  </rect>
</g><g transform="rotate(210 50 50)">
  <rect x="48" y="35" rx="2" ry="7.84" width="4" height="16" fill="#0e162e">
    <animate attributeName="opacity" values="1;0" keyTimes="0;1" dur="0.5154639175257733s" begin="-0.1718213058419244s" repeatCount="indefinite"></animate>
  </rect>
</g><g transform="rotate(240 50 50)">
  <rect x="48" y="35" rx="2" ry="7.84" width="4" height="16" fill="#0e162e">
    <animate attributeName="opacity" values="1;0" keyTimes="0;1" dur="0.5154639175257733s" begin="-0.12886597938144329s" repeatCount="indefinite"></animate>
  </rect>
</g><g transform="rotate(270 50 50)">
  <rect x="48" y="35" rx="2" ry="7.84" width="4" height="16" fill="#0e162e">
    <animate attributeName="opacity" values="1;0" keyTimes="0;1" dur="0.5154639175257733s" begin="-0.0859106529209622s" repeatCount="indefinite"></animate>
  </rect>
</g><g transform="rotate(300 50 50)">
  <rect x="48" y="35" rx="2" ry="7.84" width="4" height="16" fill="#0e162e">
    <animate attributeName="opacity" values="1;0" keyTimes="0;1" dur="0.5154639175257733s" begin="-0.0429553264604811s" repeatCount="indefinite"></animate>
  </rect>
</g><g transform="rotate(330 50 50)">
  <rect x="48" y="35" rx="2" ry="7.84" width="4" height="16" fill="#0e162e">
    <animate attributeName="opacity" values="1;0" keyTimes="0;1" dur="0.5154639175257733s" begin="0s" repeatCount="indefinite"></animate>
  </rect>
</g>
<!-- [ldio] generated by https://loading.io/ --></svg>